<svg width="89" height="41" viewBox="0 0 89 41" fill="none" xmlns="http://www.w3.org/2000/svg">
<path d="M16.1479 0L14.6061 17.4802L12.6316 0H8.06042L6.08589 17.4802L4.54413 0H0L3.51629 41H8.06042L10.3325 17.6931L12.6316 41H17.1757L20.692 0H16.1479Z" fill="#FFCB05"/>
<path d="M34.4564 4.46982V0H25.3952V41H29.9393V22.7482H33.0499V18.2784H29.9393V4.46982H34.4564Z" fill="#FFCB05"/>
<path d="M48.2208 4.46982V0H39.1596V41H43.7037V22.7482H46.8143V18.2784H43.7037V4.46982H48.2208Z" fill="#FFCB05"/>
<path d="M57.4681 36.5302V0H52.9239V41H61.9852V36.5302H57.4681Z" fill="#FFCB05"/>
<path d="M71.2325 41H66.6883V0H71.2325V41Z" fill="#FFCB05"/>
<path d="M89 41L84.7264 20.4867L89 0H84.4829L82.4543 11.0681L80.4527 0H75.9086L80.1822 20.5133L75.9086 41H80.4527L82.4543 29.9319L84.4829 41H89Z" fill="#FFCB05"/>
</svg>
